{
    "asset": {
        "copyright": "2020 (c) Adobe Inc.",
        "generator": "Adobe Dimension - 3de52ae4ccc0c25be48106335282fae5a6a58dee",
        "version": "2.0",
        "extensions": {
            "KHR_xmp": {
                "packet": 0
            }
        }
    },
    "accessors": [
        {
            "bufferView": 0,
            "componentType": 5126,
            "count": 14112,
            "type": "VEC3",
            "max": [
                0.09999999403953552,
                1.0,
                0.09999999403953552
            ],
            "min": [
                -0.09999999403953552,
                0.0,
                -0.09999999403953552
            ]
        },
        {
            "bufferView": 1,
            "componentType": 5126,
            "count": 14112,
            "type": "VEC3"
        },
        {
            "bufferView": 2,
            "componentType": 5126,
            "count": 14112,
            "type": "VEC2"
        },
        {
            "bufferView": 3,
            "componentType": 5125,
            "count": 14112,
            "type": "SCALAR",
            "max": [
                14111.0
            ],
            "min": [
                0.0
            ]
        },
        {
            "bufferView": 4,
            "componentType": 5126,
            "count": 13824,
            "type": "VEC3",
            "max": [
                0.09999999403953552,
                0.19999998807907105,
                0.09999999403953552
            ],
            "min": [
                -0.09999999403953552,
                0.0,
                -0.09999999403953552
            ]
        },
        {
            "bufferView": 5,
            "componentType": 5126,
            "count": 13824,
            "type": "VEC3"
        },
        {
            "bufferView": 6,
            "componentType": 5126,
            "count": 13824,
            "type": "VEC2"
        },
        {
            "bufferView": 7,
            "componentType": 5125,
            "count": 13824,
            "type": "SCALAR",
            "max": [
                13823.0
            ],
            "min": [
                0.0
            ]
        }
    ],
    "bufferViews": [
        {
            "buffer": 0,
            "byteOffset": 0,
            "byteLength": 169344,
            "target": 34962
        },
        {
            "buffer": 0,
            "byteOffset": 169344,
            "byteLength": 169344,
            "target": 34962
        },
        {
            "buffer": 0,
            "byteOffset": 338688,
            "byteLength": 112896,
            "target": 34962
        },
        {
            "buffer": 0,
            "byteOffset": 451584,
            "byteLength": 56448,
            "target": 34963
        },
        {
            "buffer": 0,
            "byteOffset": 508032,
            "byteLength": 165888,
            "target": 34962
        },
        {
            "buffer": 0,
            "byteOffset": 673920,
            "byteLength": 165888,
            "target": 34962
        },
        {
            "buffer": 0,
            "byteOffset": 839808,
            "byteLength": 110592,
            "target": 34962
        },
        {
            "buffer": 0,
            "byteOffset": 950400,
            "byteLength": 55296,
            "target": 34963
        }
    ],
    "buffers": [
        {
            "byteLength": 1005696,
            "uri": "Crayon_binary.bin"
        }
    ],
    "cameras": [
        {
            "perspective": {
                "znear": 0.00003487190042505972,
                "yfov": 0.6024156808853149,
                "zfar": 2.0,
                "aspectRatio": 1.3333333730697632
            },
            "type": "perspective",
            "name": "render_camera"
        }
    ],
    "images": [
        {
            "name": "composited_baseColor_opacity",
            "uri": "Crayon_images/composited_baseColor_opacity.png",
            "mimeType": "image/png"
        },
        {
            "name": "composited_roughness",
            "uri": "Crayon_images/composited_roughness.png",
            "mimeType": "image/png"
        }
    ],
    "materials": [
        {
            "pbrMetallicRoughness": {
                "baseColorFactor": [
                    1.0,
                    0.5775805115699768,
                    0.0,
                    1.0
                ],
                "metallicFactor": 0.0
            },
            "name": "Mat",
            "doubleSided": true
        },
        {
            "pbrMetallicRoughness": {
                "baseColorFactor": [
                    0.6375969648361206,
                    0.11697067320346832,
                    0.11697067320346832,
                    1.0
                ],
                "metallicFactor": 0.0
            },
            "name": "Mat 4",
            "doubleSided": true
        },
        {
            "pbrMetallicRoughness": {
                "baseColorFactor": [
                    0.6172069907188416,
                    0.6172069907188416,
                    0.6172069907188416,
                    1.0
                ],
                "roughnessFactor": 0.02199999988079071
            },
            "name": "Métal",
            "doubleSided": true
        },
        {
            "pbrMetallicRoughness": {
                "baseColorTexture": {
                    "index": 0
                },
                "metallicFactor": 0.0,
                "metallicRoughnessTexture": {
                    "index": 1
                }
            },
            "alphaMode": "MASK",
            "name": "Mat 2",
            "doubleSided": true
        }
    ],
    "meshes": [
        {
            "primitives": [
                {
                    "attributes": {
                        "POSITION": 0,
                        "NORMAL": 1,
                        "TEXCOORD_0": 2
                    },
                    "indices": 3,
                    "material": 0
                }
            ]
        },
        {
            "primitives": [
                {
                    "attributes": {
                        "TEXCOORD_0": 2,
                        "NORMAL": 1,
                        "POSITION": 0
                    },
                    "indices": 3,
                    "material": 1
                }
            ]
        },
        {
            "primitives": [
                {
                    "attributes": {
                        "POSITION": 0,
                        "NORMAL": 1,
                        "TEXCOORD_0": 2
                    },
                    "indices": 3,
                    "material": 2
                }
            ]
        },
        {
            "primitives": [
                {
                    "attributes": {
                        "POSITION": 4,
                        "NORMAL": 5,
                        "TEXCOORD_0": 6
                    },
                    "indices": 7,
                    "material": 3
                }
            ]
        }
    ],
    "nodes": [
        {
            "translation": [
                0.27497637271881106,
                1.3136556148529053,
                3.3048458099365236
            ],
            "rotation": [
                -0.05820896849036217,
                0.03199731558561325,
                0.001866611884906888,
                0.997789740562439
            ],
            "camera": 0,
            "name": "render_camera_n3d"
        },
        {
            "translation": [
                0.04978427663445473,
                0.389099657535553,
                0.051938168704509738
            ],
            "mesh": 0,
            "name": "Cylindre 2"
        },
        {
            "translation": [
                0.04978427663445473,
                0.0,
                0.051938168704509738
            ],
            "scale": [
                1.0,
                0.19421911239624024,
                1.0
            ],
            "mesh": 1,
            "name": "Cylindre 3"
        },
        {
            "translation": [
                0.04978427663445473,
                0.193948894739151,
                0.051938168704509738
            ],
            "scale": [
                1.0,
                0.19421911239624024,
                1.0
            ],
            "mesh": 2,
            "name": "Cylindre"
        },
        {
            "translation": [
                0.04989190027117729,
                1.3861844539642335,
                0.05177249014377594
            ],
            "scale": [
                1.0,
                1.6714242696762086,
                1.0
            ],
            "mesh": 3,
            "name": "Cône"
        }
    ],
    "samplers": [
        {},
        {}
    ],
    "scenes": [
        {
            "nodes": [
                0,
                1,
                2,
                3,
                4
            ],
            "name": "scene"
        }
    ],
    "textures": [
        {
            "name": "composited_baseColor_opacity",
            "sampler": 0,
            "source": 0
        },
        {
            "name": "composited_roughness",
            "sampler": 1,
            "source": 1
        }
    ],
    "scene": 0,
    "extensions": {
        "KHR_xmp": {
            "@context": {
                "dc": "http://purl.org/dc/elements/1.1/"
            },
            "packets": [
                {
                    "dc:date": "2022-05-19T14:08:40.609+02:00",
                    "dc:format": "model/gltf+json",
                    "dc:title": "Crayon.dn",
                    "xmp:CreatorTool": "Adobe Dimension"
                }
            ]
        }
    },
    "extensionsUsed": [
        "KHR_xmp"
    ]
}