{
    "asset": {
        "copyright": "2020 (c) Adobe Inc.",
        "generator": "Adobe Dimension - 3de52ae4ccc0c25be48106335282fae5a6a58dee",
        "version": "2.0",
        "extensions": {
            "KHR_xmp": {
                "packet": 0
            }
        }
    },
    "accessors": [
        {
            "bufferView": 0,
            "componentType": 5126,
            "count": 14112,
            "type": "VEC3",
            "max": [
                0.019999999552965165,
                0.3499999940395355,
                0.019999999552965165
            ],
            "min": [
                -0.019999999552965165,
                0.0,
                -0.019999999552965165
            ]
        },
        {
            "bufferView": 1,
            "componentType": 5126,
            "count": 14112,
            "type": "VEC3"
        },
        {
            "bufferView": 2,
            "componentType": 5126,
            "count": 14112,
            "type": "VEC2"
        },
        {
            "bufferView": 3,
            "componentType": 5125,
            "count": 14112,
            "type": "SCALAR",
            "max": [
                14111.0
            ],
            "min": [
                0.0
            ]
        },
        {
            "bufferView": 4,
            "componentType": 5126,
            "count": 84,
            "type": "VEC3",
            "max": [
                0.1935959905385971,
                0.15315599739551545,
                0.04233600199222565
            ],
            "min": [
                -0.1935959905385971,
                -0.15315599739551545,
                -0.04233600199222565
            ]
        },
        {
            "bufferView": 5,
            "componentType": 5126,
            "count": 84,
            "type": "VEC3"
        },
        {
            "bufferView": 6,
            "componentType": 5126,
            "count": 84,
            "type": "VEC2"
        },
        {
            "bufferView": 7,
            "componentType": 5125,
            "count": 204,
            "type": "SCALAR",
            "max": [
                83.0
            ],
            "min": [
                0.0
            ]
        },
        {
            "bufferView": 8,
            "componentType": 5126,
            "count": 18392,
            "type": "VEC3",
            "max": [
                0.5319690108299255,
                0.5016819834709168,
                0.4918709695339203
            ],
            "min": [
                -0.5319690108299255,
                -0.5016819834709168,
                -0.4918709695339203
            ]
        },
        {
            "bufferView": 9,
            "componentType": 5126,
            "count": 18392,
            "type": "VEC3"
        },
        {
            "bufferView": 10,
            "componentType": 5126,
            "count": 18392,
            "type": "VEC2"
        },
        {
            "bufferView": 11,
            "componentType": 5125,
            "count": 99876,
            "type": "SCALAR",
            "max": [
                18391.0
            ],
            "min": [
                0.0
            ]
        }
    ],
    "bufferViews": [
        {
            "buffer": 0,
            "byteOffset": 0,
            "byteLength": 169344,
            "target": 34962
        },
        {
            "buffer": 0,
            "byteOffset": 169344,
            "byteLength": 169344,
            "target": 34962
        },
        {
            "buffer": 0,
            "byteOffset": 338688,
            "byteLength": 112896,
            "target": 34962
        },
        {
            "buffer": 0,
            "byteOffset": 451584,
            "byteLength": 56448,
            "target": 34963
        },
        {
            "buffer": 0,
            "byteOffset": 508032,
            "byteLength": 1008,
            "target": 34962
        },
        {
            "buffer": 0,
            "byteOffset": 509040,
            "byteLength": 1008,
            "target": 34962
        },
        {
            "buffer": 0,
            "byteOffset": 510048,
            "byteLength": 672,
            "target": 34962
        },
        {
            "buffer": 0,
            "byteOffset": 510720,
            "byteLength": 816,
            "target": 34963
        },
        {
            "buffer": 0,
            "byteOffset": 511536,
            "byteLength": 220704,
            "target": 34962
        },
        {
            "buffer": 0,
            "byteOffset": 732240,
            "byteLength": 220704,
            "target": 34962
        },
        {
            "buffer": 0,
            "byteOffset": 952944,
            "byteLength": 147136,
            "target": 34962
        },
        {
            "buffer": 0,
            "byteOffset": 1100080,
            "byteLength": 399504,
            "target": 34963
        }
    ],
    "buffers": [
        {
            "byteLength": 1499584,
            "uri": "tulipe_binary.bin"
        }
    ],
    "cameras": [
        {
            "perspective": {
                "znear": 0.000010000000656873454,
                "yfov": 0.6024156808853149,
                "zfar": 2.0,
                "aspectRatio": 1.3333333730697632
            },
            "type": "perspective",
            "name": "render_camera"
        }
    ],
    "materials": [
        {
            "pbrMetallicRoughness": {
                "baseColorFactor": [
                    0.026241334155201913,
                    0.46207714080810549,
                    0.17144079506397248,
                    1.0
                ],
                "roughnessFactor": 0.02199999988079071
            },
            "name": "Métal",
            "doubleSided": true
        },
        {
            "pbrMetallicRoughness": {
                "baseColorFactor": [
                    1.0,
                    0.0,
                    0.0,
                    1.0
                ],
                "metallicFactor": 0.0,
                "roughnessFactor": 0.028999999165534974
            },
            "name": "Plastique 2",
            "doubleSided": true
        }
    ],
    "meshes": [
        {
            "name": "PROCEDURAL_MESHES_CYLINDER#",
            "primitives": [
                {
                    "attributes": {
                        "POSITION": 0,
                        "NORMAL": 1,
                        "TEXCOORD_0": 2
                    },
                    "indices": 3,
                    "material": 0
                }
            ]
        },
        {
            "name": "model 9",
            "primitives": [
                {
                    "attributes": {
                        "TEXCOORD_0": 6,
                        "NORMAL": 5,
                        "POSITION": 4
                    },
                    "indices": 7,
                    "material": 0
                }
            ]
        },
        {
            "name": "model 10",
            "primitives": [
                {
                    "attributes": {
                        "POSITION": 8,
                        "NORMAL": 9,
                        "TEXCOORD_0": 10
                    },
                    "indices": 11,
                    "material": 1
                }
            ]
        }
    ],
    "nodes": [
        {
            "translation": [
                -0.3723584711551666,
                0.25146162509918215,
                -0.5147282481193543
            ],
            "rotation": [
                0.003361162729561329,
                0.9356743693351746,
                0.008914200589060784,
                -0.3527360260486603
            ],
            "scale": [
                1.0,
                1.0,
                1.0000001192092896
            ],
            "camera": 0,
            "name": "render_camera_n3d"
        },
        {
            "translation": [
                0.12508533895015717,
                0.1713278591632843,
                0.045838430523872378
            ],
            "rotation": [
                -9.483761553852333e-10,
                0.9953961968421936,
                9.849260962369044e-9,
                0.0958457663655281
            ],
            "scale": [
                0.3695719540119171,
                0.3695719242095947,
                0.3695719540119171
            ],
            "mesh": 0,
            "name": "Cylindre"
        },
        {
            "translation": [
                0.1262475699186325,
                0.1914265751838684,
                0.02450866624712944
            ],
            "rotation": [
                5.8346283360322108e-9,
                -0.7986355423927307,
                -7.5792065956648e-9,
                0.6018149852752686
            ],
            "scale": [
                0.10099992901086807,
                0.10100000351667404,
                0.10099992901086807
            ],
            "mesh": 1,
            "name": "model 9"
        },
        {
            "translation": [
                0.1273972988128662,
                0.31575578451156618,
                0.04553697630763054
            ],
            "rotation": [
                4.274805842641172e-9,
                0.37460634112358096,
                -1.7271323260459326e-9,
                0.9271839261054993
            ],
            "scale": [
                0.10099992156028748,
                0.10099998861551285,
                0.10099996626377106
            ],
            "mesh": 2,
            "name": "model 10"
        }
    ],
    "scenes": [
        {
            "nodes": [
                0,
                1,
                2,
                3
            ],
            "name": "scene"
        }
    ],
    "scene": 0,
    "extensions": {
        "KHR_xmp": {
            "@context": {
                "dc": "http://purl.org/dc/elements/1.1/"
            },
            "packets": [
                {
                    "dc:date": "2022-05-09T21:38:16.218+02:00",
                    "dc:format": "model/gltf+json",
                    "dc:title": "tulipe.dn",
                    "xmp:CreatorTool": "Adobe Dimension"
                }
            ]
        }
    },
    "extensionsUsed": [
        "KHR_xmp"
    ]
}